<?xml version="1.0" encoding="utf-8"?>
<!-- Generator: Adobe Illustrator 15.0.2, SVG Export Plug-In . SVG Version: 6.00 Build 0)  -->
<!DOCTYPE svg PUBLIC "-//W3C//DTD SVG 1.1//EN" "http://www.w3.org/Graphics/SVG/1.1/DTD/svg11.dtd">
<svg version="1.1" id="penta" xmlns="http://www.w3.org/2000/svg" xmlns:xlink="http://www.w3.org/1999/xlink" x="0px" y="0px"
	 width="480px" height="120px" viewBox="0 0 480 120" enable-background="new 0 0 480 120" xml:space="preserve">
<g id="p-group">
	<path id="p-letter" stroke="#000000" stroke-miterlimit="10" d="M79,38c0,11.8-3.6,22-11,28.2c-7.4,6.3-17.3,9.2-31,9.2H25.5v40
		h-23V4.5H38c13.4,0,24,3,31,8.8C76,19,79,26.6,79,38z M25.5,56.5H35c6,0,11.4-1.4,15-4.2c3.6-2.8,7-7.7,7-13.1
		c0-5.5-2.8-9.1-5.8-11.7c-3-2.6-10.2-3.9-16.2-3.9h-9.5V56.5z"/>
	<path id="p-bg" fill="#FFFFFF" stroke="#FFFFFF" stroke-miterlimit="10" d="M0.5,0.5v120h84V0.5H0.5z M68,66.2
		c-7.4,6.3-17.3,9.2-31,9.2H25.5v40h-23V4.5H38c13.4,0,24,3,31,8.8C76,19,79,26.6,79,38C79,49.8,75.4,60,68,66.2z M57,39.1
		c0,5.4-3.4,10.3-7,13.1c-3.6,2.8-9,4.2-15,4.2h-9.5v-33H35c6,0,13.2,1.3,16.2,3.9C54.2,30,57,33.7,57,39.1z"/>
</g>
<g id="e-group">
	<path id="e-letter" stroke="#000000" stroke-miterlimit="10" d="M155.5,115.5h-63V4.5h63v19h-40v25h37v19h-37v28h40V115.5z"/>
	<path id="e-bg" fill="#FFFFFF" stroke="#FFFFFF" stroke-miterlimit="10" d="M82.5,0.5v120h81V0.5H82.5z M155.5,23.5h-42v25h39v19
		h-39v28h42v20h-64V4.5h64V23.5z"/>
</g>
<g id="n-group">
	<path id="n-letter" stroke="#000000" stroke-miterlimit="10" d="M271.5,115.5H244l-49.5-82.7l0,0c0,14,0,82.7,0,82.7h-21V4.5h30.4
		L250.5,87l0,0c0-14,0-81.5,0-81.5h21V115.5z"/>
	<path id="n-bg" fill="#FFFFFF" stroke="#FFFFFF" stroke-miterlimit="10" d="M164.5,0.5v120h111V0.5H164.5z M272.5,115.5h-27.8
		l-50.2-82.7c0,14,0,82.7,0,82.7h-21V4.5h30.8L251.5,87c0-14,0-81.5,0-81.5h21V115.5z"/>
</g>
<g id="t-group">
	<path id="t-bg" fill="#FFFFFF" stroke="#FFFFFF" stroke-miterlimit="10" d="M275.5,0.5v120h96V0.5H275.5z M370.5,24.5h-30v91h-24
		v-91h-31v-20h85V24.5z"/>
	<path id="t-letter" stroke="#000000" stroke-miterlimit="10" d="M340.5,115.5h-24v-91h-31v-20h85v20h-30V115.5z"/>
</g>
<g id="a-group">
	<path id="a-bg" fill="#FFFFFF" stroke="#FFFFFF" stroke-miterlimit="10" d="M428,27.7c0.9,3.1,5.6,17.8,13,41.8h-30
		c7.8-26,13.3-42.6,15-49.1C426.4,22.2,427.1,24.6,428,27.7z M479.5,0.5v120h-107V0.5H479.5z M478,115.5l-38-112h-28l-39,112h25
		l8-29h40l8,29H478z"/>
	<path id="a-LETTER" stroke="#000000" stroke-miterlimit="10" d="M454,115.5l-8-29h-40l-8,29h-25l39-112h28l38,112H454z M441,69.5
		c-7.4-24-12.1-38.7-13-41.8c-0.9-3.1-1.6-5.4-2-7.2c-1.7,6.4-7.2,23.1-15,49.1H441z"/>
</g>
</svg>
